<svg width="24" height="24" viewBox="0 0 24 24" fill="none" xmlns="http://www.w3.org/2000/svg">
<path fill-rule="evenodd" clip-rule="evenodd" d="M21.0011 6H3.0011V9C4.10567 9 5.0011 9.89543 5.0011 11V15C5.0011 17.8284 5.0011 19.2426 5.87978 20.1213C6.75846 21 8.17267 21 11.0011 21H13.0011C15.8295 21 17.2437 21 18.1224 20.1213C19.0011 19.2426 19.0011 17.8284 19.0011 15V11C19.0011 9.89543 19.8965 9 21.0011 9V6ZM10.5011 11C10.5011 10.4477 10.0534 10 9.5011 10C8.94881 10 8.5011 10.4477 8.5011 11V16C8.5011 16.5523 8.94881 17 9.5011 17C10.0534 17 10.5011 16.5523 10.5011 16V11ZM15.5011 11C15.5011 10.4477 15.0534 10 14.5011 10C13.9488 10 13.5011 10.4477 13.5011 11V16C13.5011 16.5523 13.9488 17 14.5011 17C15.0534 17 15.5011 16.5523 15.5011 16V11Z" fill="black"/>
<path d="M10.0692 3.37059C10.1832 3.26427 10.4343 3.17033 10.7836 3.10332C11.1329 3.03632 11.5608 3 12.0011 3C12.4414 3 12.8693 3.03632 13.2186 3.10332C13.5679 3.17033 13.819 3.26427 13.933 3.37059" stroke="black" stroke-width="2" stroke-linecap="round"/>
</svg>
