<svg width="24" height="24" viewBox="0 0 24 24" fill="none" xmlns="http://www.w3.org/2000/svg">
<path fill-rule="evenodd" clip-rule="evenodd" d="M11.0011 18C14.8671 18 18.0011 14.866 18.0011 11C18.0011 7.13401 14.8671 4 11.0011 4C7.13511 4 4.0011 7.13401 4.0011 11C4.0011 14.866 7.13511 18 11.0011 18ZM11.0011 6C10.3445 6 9.69431 6.12933 9.08768 6.3806C8.48105 6.63188 7.92986 7.00017 7.46556 7.46447C7.00127 7.92876 6.63297 8.47996 6.3817 9.08658C6.13043 9.69321 6.0011 10.3434 6.0011 11C6.0011 11.5523 6.44881 12 7.0011 12C7.55338 12 8.0011 11.5523 8.0011 11C8.0011 10.606 8.0787 10.2159 8.22946 9.85195C8.38022 9.48797 8.6012 9.15726 8.87978 8.87868C9.15835 8.6001 9.48907 8.37913 9.85305 8.22836C10.217 8.0776 10.6071 8 11.0011 8C11.5534 8 12.0011 7.55228 12.0011 7C12.0011 6.44772 11.5534 6 11.0011 6Z" fill="black"/>
<path d="M20.0011 20L18.0011 18" stroke="#222222" stroke-width="2" stroke-linecap="round"/>
</svg>
