<svg width="23" height="23" viewBox="0 0 23 23" fill="none" xmlns="http://www.w3.org/2000/svg">
<path d="M21.3571 10.6786H14.7857C14.332 10.6786 13.9642 11.0464 13.9642 11.5V21.3572C13.9642 21.8108 14.332 22.1786 14.7857 22.1786H21.3571C21.8107 22.1786 22.1785 21.8108 22.1785 21.3572V11.5C22.1785 11.0464 21.8107 10.6786 21.3571 10.6786Z" stroke="white" stroke-width="2" stroke-linecap="round" stroke-linejoin="round"/>
<path d="M21.3571 0.821411H14.7857C14.332 0.821411 13.9642 1.18918 13.9642 1.64284V4.94498C13.9642 5.39864 14.332 5.76641 14.7857 5.76641H21.3571C21.8107 5.76641 22.1785 5.39864 22.1785 4.94498V1.64284C22.1785 1.18918 21.8107 0.821411 21.3571 0.821411Z" stroke="white" stroke-width="2" stroke-linecap="round" stroke-linejoin="round"/>
<path d="M8.21427 0.821411H1.64284C1.18918 0.821411 0.821411 1.18918 0.821411 1.64284V11.5C0.821411 11.9536 1.18918 12.3214 1.64284 12.3214H8.21427C8.66793 12.3214 9.0357 11.9536 9.0357 11.5V1.64284C9.0357 1.18918 8.66793 0.821411 8.21427 0.821411Z" stroke="white" stroke-width="2" stroke-linecap="round" stroke-linejoin="round"/>
<path d="M8.21427 17.2335H1.64284C1.18918 17.2335 0.821411 17.6012 0.821411 18.0549V21.3571C0.821411 21.8107 1.18918 22.1785 1.64284 22.1785H8.21427C8.66793 22.1785 9.0357 21.8107 9.0357 21.3571V18.0549C9.0357 17.6012 8.66793 17.2335 8.21427 17.2335Z" stroke="white" stroke-width="2" stroke-linecap="round" stroke-linejoin="round"/>
</svg>
