<svg width="24" height="24" viewBox="0 0 24 24" fill="none" xmlns="http://www.w3.org/2000/svg">
<path fill-rule="evenodd" clip-rule="evenodd" d="M17.2051 10.796L19.0011 9C19.5464 8.45475 19.819 8.18213 19.9647 7.88803C20.242 7.32848 20.242 6.67153 19.9647 6.11197C19.819 5.81788 19.5464 5.54525 19.0011 5C18.4559 4.45475 18.1832 4.18213 17.8891 4.03639C17.3296 3.75911 16.6726 3.75911 16.1131 4.03639C15.819 4.18213 15.5464 4.45475 15.0011 5L13.1825 6.81866C14.1463 8.46926 15.5325 9.84482 17.2051 10.796ZM11.728 8.27312L4.85749 15.1436C4.43243 15.5687 4.2199 15.7812 4.08017 16.0423C3.94043 16.3034 3.88149 16.5981 3.7636 17.1876L3.1482 20.2646C3.08168 20.5972 3.04842 20.7635 3.14303 20.8581C3.23764 20.9527 3.40394 20.9194 3.73655 20.8529L6.81353 20.2375C7.40298 20.1196 7.69771 20.0607 7.95881 19.9209C8.2199 19.7812 8.43243 19.5687 8.8575 19.1436L15.7469 12.2542C14.1252 11.2386 12.7535 9.87628 11.728 8.27312Z" fill="black"/>
</svg>
