<svg width="23" height="23" viewBox="0 0 23 23" fill="none" xmlns="http://www.w3.org/2000/svg">
<path d="M15.6071 17.2501V20.5358C15.6071 20.9715 15.434 21.3894 15.1259 21.6975C14.8178 22.0055 14.4 22.1787 13.9643 22.1787H2.46427C2.02855 22.1787 1.61069 22.0055 1.30259 21.6975C0.994498 21.3894 0.821411 20.9715 0.821411 20.5358V2.46439C0.821411 2.02867 0.994498 1.61081 1.30259 1.30271C1.61069 0.99462 2.02855 0.821533 2.46427 0.821533H13.9643C14.4 0.821533 14.8178 0.99462 15.1259 1.30271C15.434 1.61081 15.6071 2.02867 15.6071 2.46439V5.7501" stroke="white" stroke-width="2" stroke-linecap="round" stroke-linejoin="round"/>
<path d="M10.6786 11.5H22.1786" stroke="white" stroke-width="2" stroke-linecap="round" stroke-linejoin="round"/>
<path d="M18.8928 8.21436L22.1785 11.5001L18.8928 14.7858" stroke="white" stroke-width="2" stroke-linecap="round" stroke-linejoin="round"/>
</svg>
