<svg width="23" height="23" viewBox="0 0 23 23" fill="none" xmlns="http://www.w3.org/2000/svg">
<path d="M14.7857 22.1787H2.46427C2.02855 22.1787 1.61069 22.0055 1.30259 21.6975C0.994498 21.3894 0.821411 20.9715 0.821411 20.5358V2.46439C0.821411 2.02867 0.994498 1.61081 1.30259 1.30271C1.61069 0.99462 2.02855 0.821533 2.46427 0.821533H20.5357C20.9714 0.821533 21.3893 0.99462 21.6974 1.30271C22.0054 1.61081 22.1786 2.02867 22.1786 2.46439V14.7858L14.7857 22.1787Z" stroke="white" stroke-width="2" stroke-linecap="round" stroke-linejoin="round"/>
<path d="M14.7856 15.6073V22.1787L22.1785 14.7859H15.6071C15.3892 14.7859 15.1803 14.8724 15.0262 15.0265C14.8722 15.1805 14.7856 15.3895 14.7856 15.6073Z" stroke="white" stroke-width="2" stroke-linecap="round" stroke-linejoin="round"/>
</svg>
